<?xml version="1.0" standalone="no"?>
<!DOCTYPE svg PUBLIC "-//W3C//DTD SVG 20010904//EN"
 "http://www.w3.org/TR/2001/REC-SVG-20010904/DTD/svg10.dtd">
<svg version="1.0" xmlns="http://www.w3.org/2000/svg"
 width="280.000000pt" height="280.000000pt" viewBox="0 0 280.000000 280.000000"
 preserveAspectRatio="xMidYMid meet">
<metadata>
Created by potrace 1.14, written by Peter Selinger 2001-2017
</metadata>
<g transform="translate(0.000000,280.000000) scale(0.100000,-0.100000)"
fill="#000000" stroke="none">
<path d="M1287 2684 c-1 -1 -51 -4 -112 -7 -142 -7 -191 -16 -209 -36 -14 -16
-20 -115 -17 -302 1 -54 2 -57 31 -62 21 -5 28 -11 24 -22 -3 -8 -11 -12 -18
-9 -6 3 -4 -1 6 -8 11 -10 13 -19 7 -30 -6 -11 -5 -19 2 -23 6 -5 2 -13 -11
-22 -19 -13 -24 -14 -32 -2 -8 11 -9 10 -4 -3 3 -12 0 -18 -9 -18 -23 0 -91
-66 -110 -107 -9 -19 -19 -50 -22 -67 -3 -17 -9 -36 -14 -42 -5 -6 -6 -14 -2
-17 11 -11 12 -78 1 -71 -6 4 -6 -1 1 -13 7 -14 7 -23 -1 -31 -7 -7 -8 -12 -2
-12 11 0 11 -250 0 -268 -4 -7 -2 -12 5 -12 8 0 8 -4 -1 -15 -7 -8 -9 -15 -4
-15 5 0 9 -16 9 -35 0 -26 -4 -34 -14 -30 -12 5 -12 3 0 -11 15 -18 20 -54 7
-54 -5 0 -6 -6 -1 -12 10 -17 11 -97 1 -125 -4 -12 -4 -25 1 -27 9 -6 7 -49
-4 -66 -3 -5 -11 -7 -17 -4 -7 4 -8 2 -4 -4 4 -6 12 -9 19 -6 9 3 12 -13 11
-59 0 -34 -3 -68 -7 -74 -4 -6 -2 -15 3 -18 7 -5 5 -12 -7 -21 -11 -9 -12 -13
-4 -12 9 2 14 -9 15 -35 0 -20 -3 -37 -8 -37 -5 0 -3 -7 4 -15 10 -12 10 -15
0 -15 -8 0 -9 -4 -4 -12 20 -28 5 -106 -18 -92 -7 4 -8 2 -4 -4 4 -6 12 -9 19
-6 9 3 12 -19 12 -86 0 -49 -4 -90 -9 -90 -5 0 -3 -7 4 -15 10 -12 10 -15 0
-15 -9 0 -9 -4 1 -17 12 -15 12 -16 -1 -8 -13 8 -13 7 -1 -8 11 -14 11 -17 0
-17 -12 0 -12 -2 0 -9 7 -5 11 -13 7 -19 -3 -6 -2 -13 4 -17 6 -4 8 -10 6 -14
-8 -12 42 -51 65 -51 11 0 18 -4 15 -8 -3 -4 5 -8 17 -9 111 -2 121 -4 107
-13 -9 -6 -10 -10 -3 -10 6 0 15 5 18 10 4 7 13 7 26 0 10 -6 19 -7 19 -3 0 4
22 6 50 5 27 -2 48 -8 45 -12 -3 -5 0 -12 6 -16 7 -4 9 -3 5 4 -10 17 13 25
31 10 9 -7 14 -8 10 -2 -7 12 22 12 42 -1 8 -4 12 -4 8 1 -3 5 42 8 106 6 73
-2 114 -7 119 -15 6 -9 8 -8 8 3 0 11 11 15 44 14 25 -1 50 -5 57 -10 7 -4 10
-3 6 3 -4 6 3 10 17 10 18 0 23 -4 19 -16 -4 -13 -3 -14 5 -2 7 9 32 16 69 18
32 1 64 5 71 8 6 2 12 -1 12 -7 0 -7 5 -6 15 2 12 10 18 10 32 -1 14 -12 16
-12 9 0 -7 11 -1 13 27 9 21 -2 33 0 30 6 -4 5 1 7 10 3 10 -3 17 -2 17 3 0 6
11 10 24 10 28 0 53 22 68 59 11 30 15 1487 3 1561 -15 100 -73 174 -155 199
l-39 12 2 56 c2 52 4 58 27 63 l25 6 2 169 c2 94 -1 176 -6 183 -12 19 -69 30
-191 38 -91 6 -419 12 -423 8z"/>
<path d="M776 1853 c-6 -14 -5 -15 5 -6 7 7 10 15 7 18 -3 3 -9 -2 -12 -12z"/>
<path d="M775 1660 c3 -5 8 -10 11 -10 2 0 4 5 4 10 0 6 -5 10 -11 10 -5 0 -7
-4 -4 -10z"/>
<path d="M755 1629 c-4 -6 -5 -12 -2 -15 2 -3 7 2 10 11 7 17 1 20 -8 4z"/>
<path d="M776 1553 c-6 -14 -5 -15 5 -6 7 7 10 15 7 18 -3 3 -9 -2 -12 -12z"/>
<path d="M750 941 c0 -6 4 -13 10 -16 6 -3 7 1 4 9 -7 18 -14 21 -14 7z"/>
<path d="M776 607 c3 -10 9 -15 12 -12 3 3 0 11 -7 18 -10 9 -11 8 -5 -6z"/>
<path d="M776 382 c-3 -5 1 -9 9 -9 8 0 12 4 9 9 -3 4 -7 8 -9 8 -2 0 -6 -4
-9 -8z"/>
</g>
</svg>
